<svg xmlns="http://www.w3.org/2000/svg" viewBox="0 0 60.59 94.95"><path d="M50,60c-.31-8.59-5.21-16.19-12.47-19.37l-.32-.13V7.24a7.11,7.11,0,0,0-7-7.24,7.11,7.11,0,0,0-6.95,7.24V40.52l-.32.13C15.75,43.83,10.85,51.43,10.55,60l0,.14L0,95H60.59ZM26.56,7.24a3.74,3.74,0,1,1,7.46,0V39.49l-.61-.11a18.1,18.1,0,0,0-6.23,0l-.62.11ZM13.78,59.86c.48-9.78,7.73-17.43,16.51-17.43s16,7.65,16.52,17.43l0,.55H13.75ZM38.72,74.24,44,91.64H31.9V73.75a1.62,1.62,0,0,0-1.63-1.69,1.65,1.65,0,0,0-1.59,1.68v17.9H16.56l5.31-17.4a1.7,1.7,0,0,0-.24-1.5,1.6,1.6,0,0,0-1.32-.68,1.62,1.62,0,0,0-1.52,1.19L13.18,91.64H4.38l8.44-27.92H47.76l8.45,27.92h-8.8L41.8,73.25a1.65,1.65,0,0,0-1.58-1.19,1.6,1.6,0,0,0-1.28.69A1.71,1.71,0,0,0,38.72,74.24Z"/></svg>
