<svg xmlns="http://www.w3.org/2000/svg" viewBox="0 0 78.6 96.6"><path d="M44.49,69l.72-1.73A1.32,1.32,0,0,0,45.08,66,1.29,1.29,0,0,0,44,65.42l-4.68-.08-2.68-1a1.25,1.25,0,0,0-.81,0l-3.49,1-1.14-.56V64L34,62.3a1.3,1.3,0,0,0,.53-1.59l-.6-1.55L36.71,58a1.3,1.3,0,0,0,.8-1.2V50.11l1.22.62a1.28,1.28,0,0,0,.9.1l5-1.23a1.28,1.28,0,0,0,.85-.69l3.66-7.39A1.32,1.32,0,0,0,49,40.13l-2.28-2.89a1.3,1.3,0,0,0-1.33-.46l-4.1,1-2-2.08V32.89a1.3,1.3,0,0,0-.22-.72l-1.49-2.26,1.61-5.36L42.06,19a1.23,1.23,0,0,0,.12-.37l1-6.07a1.32,1.32,0,0,0-.14-.85L41.15,8.18l.93-2.52,2-3.73A1.29,1.29,0,0,0,43.8.33,1.28,1.28,0,0,0,42.18.25l-6.4,4.6H32.23a1.29,1.29,0,0,0-1.08.58L24,16.22l-5.88,3.06H16.3l-4,.67-1.55-.59a1.32,1.32,0,0,0-1.47.39L3.3,27a1.22,1.22,0,0,0-.28.57L.71,39.2.36,49.54.71,61.07,0,65.39a1.3,1.3,0,0,0,.16.86l3,5.17a1.25,1.25,0,0,0,.47.47L8.88,75l-1,10.5A1.3,1.3,0,0,0,9,86.87l9.9,1.46,1.76,1.27a1.35,1.35,0,0,0,.77.24,1.29,1.29,0,0,0,.51-.1l3.27-1.39,8.26-1.12a1.31,1.31,0,0,0,.94-2L31,79.67a1.31,1.31,0,0,0-1.11-.62H27.26a1.32,1.32,0,0,0-.9.35l-.2.2v-.19l1.94-1.64a1.29,1.29,0,0,0,.47-1V72.29l0,4.48a1.29,1.29,0,0,0,.64,1.12L39,83.74l2.17,1.46A1.3,1.3,0,0,0,43,84.87l3.79-5.31A1.27,1.27,0,0,0,47,78.8V71.92a1.32,1.32,0,0,0-.41-1ZM31,71.16l-2.65-3.7a1.3,1.3,0,0,0-2.36.76v8L24,77.81a1.27,1.27,0,0,0-.47,1v3.83a1.3,1.3,0,0,0,.79,1.2,1.29,1.29,0,0,0,1.41-.25l2-1.93h1.39l2,3.26-6.47.88a1.59,1.59,0,0,0-.33.09l-2.76,1.17-1.42-1a1.35,1.35,0,0,0-.57-.23l-9-1.32,1-10.09a1.29,1.29,0,0,0-.64-1.25L5.26,69.82l-2.6-4.48.66-4.19L3,49.55l.35-10.13,2.2-11,5.16-6.24,1,.39a1.32,1.32,0,0,0,.68.06l4.05-.69h2a1.31,1.31,0,0,0,.61-.15l6.45-3.37a1.32,1.32,0,0,0,.48-.43l7-10.48H36.2A1.27,1.27,0,0,0,37,7.22l2.38-1.67L38.5,7.84a1.28,1.28,0,0,0,.08,1.08l2,3.63L39.65,18l-2.86,5.69L35,29.75a1.31,1.31,0,0,0,.17,1.1l1.61,2.43v3a1.3,1.3,0,0,0,.36.9l2.87,3a1.32,1.32,0,0,0,1.25.36l4-1,1.25,1.58-3,6.11-4,1-2.69-1.36A1.3,1.3,0,0,0,34.9,48v7.93l-3.17,1.33A1.31,1.31,0,0,0,31,58.92l.68,1.72-2.47,1.52a1.31,1.31,0,0,0-.62,1.11v2.32a1.33,1.33,0,0,0,.73,1.18l2.33,1.13a1.3,1.3,0,0,0,.93.08l3.55-1,2.74,1a1.11,1.11,0,0,0,.44.08h2.73l-.31.76a1.29,1.29,0,0,0,.3,1.44l2.39,2.25v5.91l-2.82,3.94-1.18-.79L31.21,76V71.92A1.29,1.29,0,0,0,31,71.16Z"/><path d="M73.28,68.57a5.32,5.32,0,0,0,2.2-10.17V54.68a1.24,1.24,0,0,0-.1-.5l-1.23-3a1.29,1.29,0,0,0-.85-.76l-4.46-1.25a1.31,1.31,0,0,0-1.15.22l-6.43,4.93-3.57-.91a1.31,1.31,0,0,0-1.53.76l-1,2.45L51.4,59.84H47.45a1.3,1.3,0,0,0-1.07,2l2.34,3.39,1.9,7.91,1.51,4.56a1.29,1.29,0,0,0,1.72.79l2.26-.91,3.26,2,.75,2.78-1.58,2.12H55.4l-2.57-2.74A1.3,1.3,0,0,0,51,81.72l-3.38,3.15a1.31,1.31,0,0,0-.32,1.44l1.43,3.63a1.29,1.29,0,0,0,.33.47l6.29,5.84a1.3,1.3,0,0,0,2.19-1V93.55H61l2.61,2.66a1.26,1.26,0,0,0,.92.39,1.24,1.24,0,0,0,.5-.1,1.28,1.28,0,0,0,.81-1.21V92.52l2.57-5.77,5.18-3a1.3,1.3,0,0,0-.33-2.4l-4.08-1-1.43-1.56,1.45-1.5L73.35,76a1.33,1.33,0,0,0,.83-.82A1.31,1.31,0,0,0,74,74L71.82,70.7a1.38,1.38,0,0,0-.51-.45l-2-1,1-1.58A5.23,5.23,0,0,0,73.28,68.57Zm-5.73,6.7L65,77.87a1.31,1.31,0,0,0,0,1.79l2.52,2.76a1.4,1.4,0,0,0,.65.39l1.31.33-2.73,1.55a1.36,1.36,0,0,0-.55.61l-2.85,6.42a1.25,1.25,0,0,0-.11.39l-.76-.78a1.29,1.29,0,0,0-.93-.39H56.23a1.31,1.31,0,0,0-1.31,1.31v.06L51,88.7l-1-2.53,1.78-1.66,2.07,2.21a1.3,1.3,0,0,0,1,.41H59.2a1.33,1.33,0,0,0,1-.53l2.34-3.15a1.31,1.31,0,0,0,.22-1.13l-1.06-3.88a1.29,1.29,0,0,0-.58-.77l-4.26-2.61A1.31,1.31,0,0,0,55.74,75l-1.58.63-1-3.12-1.92-8A1.31,1.31,0,0,0,51,64l-1.07-1.54h1.94a1.28,1.28,0,0,0,.84-.31l4.35-3.73a1.25,1.25,0,0,0,.36-.49l.71-1.69,3.09.78a1.29,1.29,0,0,0,1.11-.22l6.42-4.92,3.22.9.9,2.17v3A5.35,5.35,0,0,0,68,63.25a5.25,5.25,0,0,0,.59,2.43l-2.24,3.39A1.31,1.31,0,0,0,66.82,71l3,1.48L70.9,74l-2.82.92A1.31,1.31,0,0,0,67.55,75.27Zm5.73-14.73a2.71,2.71,0,1,1-2.71,2.71A2.71,2.71,0,0,1,73.28,60.54Z"/></svg>
