<svg xmlns="http://www.w3.org/2000/svg" viewBox="0 0 66.95 91.97"><path d="M63.11,42.51l-.1-.16v0L34.94.82a1.77,1.77,0,0,0-3,0l-28,41.52-.1.17a34,34,0,0,0,8.44,41.88,33.39,33.39,0,0,0,42.39,0A34,34,0,0,0,63.11,42.51ZM54.62,79.56a29.61,29.61,0,0,1-38.83,3A30.1,30.1,0,0,1,6.91,44.39L7,44.23,33.47,5.06,60,44.38A30,30,0,0,1,54.62,79.56Z"/><path d="M25.62,72.07A14.8,14.8,0,0,1,20.1,51.92a1.85,1.85,0,0,0-.67-2.51,1.75,1.75,0,0,0-.89-.24,1.79,1.79,0,0,0-1.56.91,18.47,18.47,0,0,0,6.9,25.09,1.76,1.76,0,0,0,1.8,0A1.84,1.84,0,0,0,26,72.25Z"/></svg>
