<svg xmlns="http://www.w3.org/2000/svg" viewBox="0 0 64 92"><path d="M64,53.94V52.58a8.45,8.45,0,0,0-8.38-8.19A8.11,8.11,0,0,0,48.19,49l-.27.57H38.76l-1.45-1.44A115.6,115.6,0,0,1,24.76,33.84a12.32,12.32,0,0,0-10-5.12A14.76,14.76,0,0,0,0,43.39v47A1.61,1.61,0,0,0,1.64,92a1.61,1.61,0,0,0,1.63-1.61v-47A11.51,11.51,0,0,1,14.81,31.94a8.88,8.88,0,0,1,7.25,3.77A117.12,117.12,0,0,0,34.93,50.52l1.89,1.87a1.53,1.53,0,0,0,1.19.44H49a3.62,3.62,0,1,1,0,7.23H34.33l-7.88-7.81a1.58,1.58,0,0,0-1.74-.32,1.64,1.64,0,0,0-1,1.49v37a1.64,1.64,0,0,0,3.27,0V57.28l5.61,5.56a1.58,1.58,0,0,0,1.19.44H47.55V90.39a1.64,1.64,0,0,0,3.27,0V63.14l.68-.23a6.81,6.81,0,0,0,4.59-6.47,6.69,6.69,0,0,0-3.49-5.91l-1.26-.7,1.1-.94a5.21,5.21,0,0,1,3.28-1.28,5,5,0,0,1,5,5v1.36a1.47,1.47,0,0,0,1.08,1.44l.23.08a1,1,0,0,0,.32.09A1.61,1.61,0,0,0,64,53.94Z"/><path d="M17.35,0A12.13,12.13,0,0,0,5.17,12.06a12.18,12.18,0,0,0,24.35,0A12.13,12.13,0,0,0,17.35,0Zm0,20.89a8.84,8.84,0,1,1,8.9-8.83A8.88,8.88,0,0,1,17.35,20.89Z"/></svg>
