<svg xmlns="http://www.w3.org/2000/svg" viewBox="0 0 85 96"><path d="M83.63,82.44A1.37,1.37,0,0,0,85,81.07V45.56A17.38,17.38,0,0,0,68.7,28.28l-2.5-.15,2.36-.82a14,14,0,1,0-9.19,0l2.36.82-2.5.15a17.38,17.38,0,0,0-16.3,17.29v5.75H41.68a10.35,10.35,0,0,0-5.4,1.51l-.59.36-.16-.67a15,15,0,0,0-.92-2.66l-.15-.31.25-.25c1.25-1.24,4.07-4.58,3.15-8.73-.83-4-6.36-13.23-8.41-16.46l-.13-.18a11.75,11.75,0,0,0-20.81.48l-.07.11a.86.86,0,0,0-.07.1c-1.21,1.89-7.3,11.63-8.2,16-.63,3,.5,6,3.26,8.79l.25.24-.15.32a13.82,13.82,0,0,0-1.3,5.83V81.24a1.37,1.37,0,0,0,2.73,0V55.72a11.2,11.2,0,0,1,11.2-11.19H22A11.21,11.21,0,0,1,33.17,55.09a1.35,1.35,0,0,0,0,.29l0,.19-.11.15a10.47,10.47,0,0,0,3.14,15l1.21.73-1.4.2a9.87,9.87,0,0,0-8.45,9.71V94.64a1.37,1.37,0,0,0,2.73,0V81.41a7.09,7.09,0,0,1,7.08-7.08H45.9A7.09,7.09,0,0,1,53,81.41V94.64a1.37,1.37,0,0,0,2.73,0V81.41a9.88,9.88,0,0,0-8.44-9.71l-1.4-.2,1.22-.73A10.47,10.47,0,0,0,46,52.2l-.29-.14v-6.5A14.67,14.67,0,0,1,60.27,31h7.39A14.65,14.65,0,0,1,82.27,45.56V81.07A1.37,1.37,0,0,0,83.63,82.44ZM10.3,27.53a9,9,0,0,1,8.78-7h0a9,9,0,0,1,8.77,7l.15.62H10.15Zm5.2,14.3a13.9,13.9,0,0,0-9.94,4.92l-.38.46-.38-.46c-1.63-1.92-2.29-3.87-1.92-5.65.34-1.61,1.66-4.48,3.94-8.54l.6-1.07.32,1.18a11.73,11.73,0,0,0,7.88,8.18l2.72.85Zm3.63-3.19h-.05a9.09,9.09,0,0,1-8.82-7.24l-.14-.67.68.07H28.12l-.12.6A9.08,9.08,0,0,1,19.13,38.64ZM33,47.16l-.38-.45a13.93,13.93,0,0,0-9.93-4.88l0-.6-.12-.38a11.78,11.78,0,0,0,7.88-8.16l.31-1.13.6,1A42.06,42.06,0,0,1,35.23,41c.39,1.86-.27,3.8-1.87,5.67ZM49.46,61.29h0l.06.5A7.77,7.77,0,0,1,44.73,69a7.87,7.87,0,0,1-3,.6,7.8,7.8,0,1,1,7.73-8.31ZM54,8.72a11.32,11.32,0,0,1,10-6h0a11.31,11.31,0,0,1,10,6l.39.74H53.61Zm4.21,15.42a11.32,11.32,0,0,1-5.55-10.09,13.55,13.55,0,0,1,.1-1.43l.06-.43H75.1l.06.43a9.87,9.87,0,0,1,.11,1.44A11.3,11.3,0,0,1,58.21,24.14Z"/></svg>
