<svg xmlns="http://www.w3.org/2000/svg" viewBox="0 0 83 96"><path d="M67.24,36.89a29.9,29.9,0,0,0,1.39-9c0-14.33-10.36-26.26-24.1-27.75A26.9,26.9,0,0,0,23.38,7a27.28,27.28,0,0,0-9,20.25v.72a29.9,29.9,0,0,0,1.39,9A17.62,17.62,0,0,0,0,54.4V64a1.6,1.6,0,0,0,1.6,1.6H8A17.47,17.47,0,0,0,25.24,51.2H26a19.33,19.33,0,0,0,6,5.4v9H19.15A11.19,11.19,0,0,0,8,76.8V94.4A1.6,1.6,0,0,0,9.58,96H73.42A1.6,1.6,0,0,0,75,94.4V76.8A11.19,11.19,0,0,0,63.85,65.6H51.08v-9a19.33,19.33,0,0,0,6-5.4h.73A17.47,17.47,0,0,0,75,65.6H81.4A1.6,1.6,0,0,0,83,64V54.4A17.62,17.62,0,0,0,67.24,36.89ZM8,62.4H3.19v-8A14.41,14.41,0,0,1,16.94,40c0,.09.08.16.11.24.33.71.66,1.41,1,2.09l4.14,7.46A14.29,14.29,0,0,1,8,62.4Zm55.87,6.4a8,8,0,0,1,8,8v16H11.17v-16a8,8,0,0,1,8-8h6.39a16,16,0,1,0,31.92,0Zm-9.58,0a12.77,12.77,0,1,1-25.54,0h3.19a9.58,9.58,0,1,0,19.16,0Zm-19.15,0V58.1l.27.08.89.28.86.22q.42.1.84.18c.32.06.64.11,1,.15s.52.08.79.1c.45,0,.89.06,1.34.07l.42,0,.42,0c.44,0,.89,0,1.34-.07.27,0,.53-.06.79-.1s.65-.09,1-.15.56-.12.84-.18l.86-.22.88-.28.28-.08V68.8a6.38,6.38,0,1,1-12.76,0ZM57.46,40a16,16,0,0,1-.15,2.08c0,.17-.05.33-.07.5a15.78,15.78,0,0,1-.4,1.81l-.06.21a15.59,15.59,0,0,1-.74,2l-.15.32a15.11,15.11,0,0,1-1,1.71,16.09,16.09,0,0,1-6.29,5.68,12.77,12.77,0,0,1-1.52.67l-.26.1c-.5.18-1,.33-1.51.46l-.24.06a14.58,14.58,0,0,1-1.71.3h-.06a15.27,15.27,0,0,1-3.7,0h-.06a14.23,14.23,0,0,1-1.71-.3l-.24-.06c-.51-.13-1-.28-1.51-.46l-.26-.1a12.09,12.09,0,0,1-1.52-.67,16,16,0,0,1-6.29-5.68,16.85,16.85,0,0,1-.95-1.71L27,46.57a15.59,15.59,0,0,1-.74-2l-.06-.21a15.74,15.74,0,0,1-.39-1.81c0-.17-.06-.33-.08-.5A16,16,0,0,1,25.54,40V32H36.86a9.54,9.54,0,0,0,9.28-7.22l1.74-6.1,2,7.26a8,8,0,0,0,7.54,6Zm.2-11.2A4.8,4.8,0,0,1,53,25.12L49.42,12.37a1.59,1.59,0,0,0-1.53-1.17h0a1.61,1.61,0,0,0-1.53,1.16L43.06,24a6.38,6.38,0,0,1-6.2,4.85H20.75V32h1.6v8a20.24,20.24,0,0,0,.11,2.08c0,.19.06.37.09.55.07.51.15,1,.26,1.51a1.22,1.22,0,0,0,0,.17l-2-3.52c-.26-.49-.51-1-.75-1.48-.14-.28-.26-.58-.38-.87a26.58,26.58,0,0,1-2.19-10.52V27.2h0a24.1,24.1,0,0,1,8-17.87,23.75,23.75,0,0,1,18.67-6C56.3,4.67,65.44,15.23,65.44,27.92a26.75,26.75,0,0,1-2.18,10.52c-.13.29-.25.59-.39.87-.23.5-.48,1-.75,1.48l-1.95,3.52a.86.86,0,0,1,0-.17c.1-.5.18-1,.25-1.5,0-.19.07-.37.09-.55A20.59,20.59,0,0,0,60.65,40V32h1.6V28.8ZM79.81,62.4H75A14.29,14.29,0,0,1,60.77,49.8l4.14-7.46c.37-.68.71-1.38,1-2.09,0-.08.08-.16.11-.24A14.41,14.41,0,0,1,79.81,54.4Z"/></svg>
