<svg xmlns="http://www.w3.org/2000/svg" viewBox="0 0 87 94"><path d="M58.39,76a3,3,0,1,0,3,3A3,3,0,0,0,58.39,76Z"/><path d="M85,67.42l-9-8.87a6.68,6.68,0,0,0-7.79-1.14l-7-6.78a9.05,9.05,0,0,0-6.32-2.56h-.58a31.65,31.65,0,0,0,.63-6.32A32.84,32.84,0,0,0,39.14,14l3.2-12a1.56,1.56,0,0,0-1.5-2H23a1.57,1.57,0,0,0-1.5,2s3.21,12,3.21,12-5.22,4-5.7,4.45A33.46,33.46,0,0,0,14,24.8a32.48,32.48,0,0,0-5,17c0,.3,0,.6,0,.9a8,8,0,0,0-7.63,1.91,4.52,4.52,0,0,0-.19,6.33L12.1,62.6l.14.13a6.68,6.68,0,0,0,.89.72l7.71,6.29a15.22,15.22,0,0,0,9.62,3.42H44.31a10.06,10.06,0,0,1,6.06,2l.35.26a6.81,6.81,0,0,0,1.33,7.77l9,8.87a6.65,6.65,0,0,0,9.45-.1l14.61-15A6.79,6.79,0,0,0,85,67.42ZM38.81,3.13l-2.67,10H27.75l-2.68-10ZM27,16.26H36.9A29.7,29.7,0,0,1,51.79,41.75a28.88,28.88,0,0,1-.71,6.32H46.64a9.17,9.17,0,0,0-5.28,1.7l-2.47,1.75h-12a5.77,5.77,0,0,0-4.32,1.95l-3.44-2.25,0,0h0L18,50.5l-5.19-5.59c-.18-.18-.36-.36-.55-.53a25.59,25.59,0,0,1-.14-2.63A29.67,29.67,0,0,1,27,16.26Zm25.21,56.4A13.14,13.14,0,0,0,44.31,70H30.45a12.21,12.21,0,0,1-7.66-2.72l-7.54-6.16-.13-.1-.84-.69L3.47,48.75a1.33,1.33,0,0,1-.36-.93,1.39,1.39,0,0,1,.41-1,4.93,4.93,0,0,1,6.27-.41h0a4.85,4.85,0,0,1,.73.64l5.34,5.74,0,0a1.44,1.44,0,0,0,.3.24l1.28.78,3.72,2.44a6.62,6.62,0,0,0-.1,1.1,5.85,5.85,0,0,0,5.83,5.87H41.24a1.57,1.57,0,0,0,0-3.13H26.93a2.74,2.74,0,0,1,0-5.48H39.4l.23,0h.08l.16,0,.13,0,.1-.05a1,1,0,0,1,.17-.1h0l2.88-2a6,6,0,0,1,3.48-1.11h8.2A6,6,0,0,1,59,52.89l6.77,6.53L52.64,73Zm30.65,2.09-14.6,15a3.56,3.56,0,0,1-5,.06l-9-8.88a3.62,3.62,0,0,1,0-5.09l14.61-15a3.57,3.57,0,0,1,5-.05l9,8.87A3.62,3.62,0,0,1,82.87,74.75Z"/><polygon points="27.66 38.31 28.67 37.5 31.16 41 33.89 41 30.24 36.1 33.68 32.35 31.02 32.35 28.6 34.98 27.57 36.3 27.54 36.3 27.66 34.33 27.66 28.96 25.3 28.96 25.3 41 27.66 41 27.66 38.31"/><path d="M37.28,36.6A2.11,2.11,0,0,1,37.91,35a2.52,2.52,0,0,1,1.76-.58,2.73,2.73,0,0,1,.69.08l.18-2.21a3.6,3.6,0,0,0-.8-.07,2.63,2.63,0,0,0-1.48.45,3.15,3.15,0,0,0-1.09,1.17h-.12l-.35-1.46H34.92V41h2.36Z"/><path d="M42.93,41.21a1.34,1.34,0,0,0,1-.35,1.5,1.5,0,0,0,0-1.94,1.38,1.38,0,0,0-1-.34,1.41,1.41,0,0,0-1,.33,1.3,1.3,0,0,0-.35,1,1.26,1.26,0,0,0,.36,1A1.38,1.38,0,0,0,42.93,41.21Z"/></svg>
