<svg xmlns="http://www.w3.org/2000/svg" viewBox="0 0 98 79"><polygon points="98 36.58 98 19.96 68.09 19.96 68.09 0 0 0 0 45.71 4.98 45.71 4.98 78.98 22.43 78.98 22.43 79 25.72 79 25.72 73.25 98 73.25 98 41.57 94.72 41.57 94.72 47.41 83.9 47.41 83.9 50.7 94.72 50.7 94.72 69.96 68.09 69.96 68.09 50.7 78.91 50.7 78.91 47.41 64.81 47.41 64.81 69.96 25.72 69.96 25.72 56.54 22.43 56.54 22.43 75.69 8.27 75.69 8.27 45.71 22.43 45.71 22.43 51.55 25.72 51.55 25.72 45.71 51.65 45.71 51.65 42.42 25.72 42.42 24.07 42.42 3.29 42.42 3.29 3.29 64.81 3.29 64.81 23.25 94.72 23.25 94.72 36.58 98 36.58"/></svg>
