<svg xmlns="http://www.w3.org/2000/svg" viewBox="0 0 98 95"><path d="M74.43,5.72H59.72l-.1-.36a7.43,7.43,0,1,0-7.13,9.48,7.48,7.48,0,0,0,7.13-5.36l.1-.36h9.53v2.53a1.7,1.7,0,0,0,3.4,0V9.12h1.78a1.7,1.7,0,0,0,0-3.4ZM52.49,11.44a4,4,0,1,1,4-4A4,4,0,0,1,52.49,11.44Z"/><path d="M23.52,58.21H4.68A4.68,4.68,0,0,0,0,62.88V88.23A4.68,4.68,0,0,0,4.68,92.9H23.52a4.67,4.67,0,0,0,4.67-4.67v-.69l.66.19,18,6A25.55,25.55,0,0,0,66,92.49L94.19,78.72a6.77,6.77,0,1,0-6-12.17L71.58,74.67l-.15-.61a7,7,0,0,0-6.8-5.35H53.24l-4.09-2.18a25.76,25.76,0,0,0-12.09-3H28.19v-.63A4.68,4.68,0,0,0,23.52,58.21Zm1.27,30a1.27,1.27,0,0,1-1.27,1.28H4.68A1.28,1.28,0,0,1,3.4,88.23V62.88a1.27,1.27,0,0,1,1.28-1.27H23.52a1.27,1.27,0,0,1,1.27,1.27ZM37.06,66.91a22.38,22.38,0,0,1,10.48,2.61L52,71.91a2.34,2.34,0,0,0,.3.11l0,.53h0l.11-.49.24,0H64.63a3.61,3.61,0,0,1,0,7.21H48.13a1.7,1.7,0,1,0,0,3.39h16.5a7,7,0,0,0,6.22-3.79l.07-.15L89.73,69.6a3.38,3.38,0,0,1,4.52,1.55,3.31,3.31,0,0,1,.16,2.58,3.37,3.37,0,0,1-1.71,1.94L64.53,89.43a22.11,22.11,0,0,1-16.58,1L28.19,83.94v-17Z"/><path d="M34.26,43.52a1.76,1.76,0,0,0,2.4.18l2.18-1.88V59.05a1.7,1.7,0,0,0,3.4,0V38.89L60.59,23.07,79,38.89V64.83a1.7,1.7,0,0,0,3.4,0v-23l2.18,1.87a1.7,1.7,0,0,0,2.22-2.57l-25-21.58a1.72,1.72,0,0,0-2.22,0l-25,21.59a1.66,1.66,0,0,0-.59,1.16A1.72,1.72,0,0,0,34.26,43.52Z"/></svg>
