<svg xmlns="http://www.w3.org/2000/svg" viewBox="0 0 99.07 98.5"><path d="M43.72,48H32.35a1.25,1.25,0,0,0-1.25,1.25V60.62a1.25,1.25,0,0,0,1.25,1.25H43.72A1.25,1.25,0,0,0,45,60.62V49.25A1.25,1.25,0,0,0,43.72,48Zm-1.25,2.5v8.87H33.6V50.5Z"/><path d="M55.35,39.18H66.72A1.25,1.25,0,0,0,68,37.93V26.55a1.25,1.25,0,0,0-1.25-1.25H55.35a1.25,1.25,0,0,0-1.25,1.25V37.93A1.25,1.25,0,0,0,55.35,39.18Zm1.25-2.5V27.8h8.87v8.88Z"/><path d="M82.32,62.8h9.37a1.25,1.25,0,0,0,0-2.5H82.32a1.25,1.25,0,0,0,0,2.5Z"/><path d="M97.82,31h-20V15.05H82.3a1.25,1.25,0,0,0,1.25-1.25V1.25A1.25,1.25,0,0,0,82.3,0H16.77a1.25,1.25,0,0,0-1.25,1.25V13.8a1.25,1.25,0,0,0,1.25,1.25h4.47V31h-20A1.25,1.25,0,0,0,0,32.24v65A1.25,1.25,0,0,0,1.25,98.5H97.82a1.25,1.25,0,0,0,1.25-1.25v-65A1.25,1.25,0,0,0,97.82,31ZM60.89,72V96H50.79V72Zm-12.6,0V96H38.18V72Zm13.85-2.5H36.93a1.25,1.25,0,0,0-1.25,1.25V96H23.74V15.05H75.33V96H63.39V70.7A1.25,1.25,0,0,0,62.14,69.45Zm-40.9-36V96H2.5V33.49Zm59.81-31V12.55H18V2.5Zm15.52,31V96H77.83V33.49Z"/><path d="M43.72,25.3H32.35a1.25,1.25,0,0,0-1.25,1.25V37.93a1.25,1.25,0,0,0,1.25,1.25H43.72A1.25,1.25,0,0,0,45,37.93V26.55A1.25,1.25,0,0,0,43.72,25.3Zm-1.25,2.5v8.88H33.6V27.8Z"/><path d="M68,60.62V49.25A1.25,1.25,0,0,0,66.72,48H55.35a1.25,1.25,0,0,0-1.25,1.25V60.62a1.25,1.25,0,0,0,1.25,1.25H66.72A1.25,1.25,0,0,0,68,60.62ZM65.47,50.5v8.87H56.6V50.5Z"/><path d="M7.38,45.3h9.38a1.25,1.25,0,1,0,0-2.5H7.38a1.25,1.25,0,0,0,0,2.5Z"/><path d="M7.38,54.05h9.38a1.25,1.25,0,1,0,0-2.5H7.38a1.25,1.25,0,0,0,0,2.5Z"/><path d="M82.32,54.05h9.37a1.25,1.25,0,0,0,0-2.5H82.32a1.25,1.25,0,0,0,0,2.5Z"/><path d="M82.32,45.3h9.37a1.25,1.25,0,0,0,0-2.5H82.32a1.25,1.25,0,0,0,0,2.5Z"/><path d="M7.38,62.8h9.38a1.25,1.25,0,1,0,0-2.5H7.38a1.25,1.25,0,1,0,0,2.5Z"/></svg>
