<svg xmlns="http://www.w3.org/2000/svg" viewBox="0 0 96 96"><path id="Combined-Shape-Copy-2" d="M85.51,10.49a35.9,35.9,0,0,1,0,50.74,36.11,36.11,0,0,1-46.57,3.58l-.13-.12-5.41,5.39.36.36a5.2,5.2,0,0,1,0,7.37L17.09,94.47a5.2,5.2,0,0,1-7.37,0L1.53,86.28a5.2,5.2,0,0,1,0-7.39L18.2,62.24a5.2,5.2,0,0,1,7.37,0l.36.35,5.39-5.38a1.34,1.34,0,0,1-.11-.14,35.88,35.88,0,0,1,54.3-46.58ZM31.64,75.7a2.22,2.22,0,0,0,.64-1.57,2.18,2.18,0,0,0-.64-1.57l-8.18-8.19a2.24,2.24,0,0,0-1.57-.64,2.21,2.21,0,0,0-1.57.64L3.67,81A2.19,2.19,0,0,0,3,82.6a2.23,2.23,0,0,0,.65,1.57l8.18,8.18a2.29,2.29,0,0,0,3.14,0ZM31.28,68l5.18-5.18c-.59-.53-1.15-1-1.68-1.57a22.9,22.9,0,0,1-1.57-1.68L28,64.71ZM83.39,59.1A32.87,32.87,0,0,0,36.9,12.61,33.09,33.09,0,0,0,33.63,55.3c.15.21.32.38.47.58a1.46,1.46,0,0,1,.6.5,18.07,18.07,0,0,0,2.21,2.72,17.21,17.21,0,0,0,2.73,2.21,1.67,1.67,0,0,1,.49.6c.19.16.38.33.58.48A33.08,33.08,0,0,0,83.39,59.1ZM61,17.18,79.84,30.89a1.51,1.51,0,0,1,.32,2.1,1.45,1.45,0,0,1-1.21.62,1.52,1.52,0,0,1-.89-.28l-2.87-2.1V51.71A1.49,1.49,0,0,1,73.7,53.2H46.61a1.49,1.49,0,0,1-1.49-1.49V31.21l-2.88,2.1a1.5,1.5,0,0,1-1.77-2.42l18.8-13.71A1.53,1.53,0,0,1,61,17.18Zm-3.76,33H63V40H57.27Zm14.91,0V29.06l-12-8.79L52,26.18,48.09,29V50.21h6.18V38.45A1.49,1.49,0,0,1,55.76,37h8.75A1.48,1.48,0,0,1,66,38.45V50.21Z"/></svg>
