<svg xmlns="http://www.w3.org/2000/svg" viewBox="0 0 97 97"><path d="M75.2,53.52A21.74,21.74,0,1,0,97,75.26V75A21.6,21.6,0,0,0,75.2,53.52ZM93.65,75.25A18.4,18.4,0,1,1,75.2,56.86h0A18.19,18.19,0,0,1,93.65,75Z"/><path d="M50.18,58.53a1.68,1.68,0,0,0-1.68-1.67H31.78a1.67,1.67,0,0,0-1.67,1.67V87H10V43.48H70.25v6.69h3.34V43.48h5a1.67,1.67,0,0,0,1.21-2.83l-6.23-6.49V15.05a1.67,1.67,0,0,0-1.67-1.67H65.23a1.67,1.67,0,0,0-1.67,1.67v8.64L41.35.52A1.64,1.64,0,0,0,40.15,0a1.66,1.66,0,0,0-1.22.52L.46,40.65a1.7,1.7,0,0,0-.33,1.82,1.69,1.69,0,0,0,1.54,1h5V88.64a1.67,1.67,0,0,0,1.67,1.67H53.52V87H50.18ZM66.9,26.76v-10h3.35v14l-3.39-3.53A1.64,1.64,0,0,0,66.9,26.76ZM5.6,40.14l34.54-36,34.54,36ZM46.83,87H33.45V60.21H46.83Z"/><polygon points="75.68 71.35 73.02 71.35 70.6 73.98 69.57 75.3 69.54 75.3 69.66 73.33 69.66 67.97 67.3 67.97 67.3 80 69.66 80 69.66 77.31 70.67 76.5 73.16 80 75.89 80 72.24 75.11 75.68 71.35"/><path d="M80.26,71.64a3.15,3.15,0,0,0-1.09,1.17h-.12l-.35-1.46H76.92V80h2.36V75.6A2.11,2.11,0,0,1,79.91,74a2.52,2.52,0,0,1,1.76-.58,2.73,2.73,0,0,1,.69.08l.18-2.21a3.6,3.6,0,0,0-.8-.07A2.63,2.63,0,0,0,80.26,71.64Z"/><path d="M84.93,77.58a1.41,1.41,0,0,0-1,.33,1.3,1.3,0,0,0-.35,1,1.26,1.26,0,0,0,.36,1,1.38,1.38,0,0,0,1,.35,1.34,1.34,0,0,0,1-.35,1.5,1.5,0,0,0,0-1.94A1.38,1.38,0,0,0,84.93,77.58Z"/></svg>
