<svg xmlns="http://www.w3.org/2000/svg" viewBox="0 0 100.66 60.31"><path d="M100.66,26.41l-27-26a1.41,1.41,0,0,0-2,0l-14,13.51L51.07,7.58a1.4,1.4,0,0,0-1.94,0L42.56,13.9,28.53.39a1.41,1.41,0,0,0-2,0L.43,25.55A1.41,1.41,0,0,0,0,26.9a1.43,1.43,0,0,0,1,1,1.44,1.44,0,0,0,1.36-.34L27.55,3.34l13,12.5L23,32.74a1.37,1.37,0,0,0-.39,1.35,1.41,1.41,0,0,0,1,1,1.73,1.73,0,0,0,.38,0,1.38,1.38,0,0,0,1-.4L50.1,10.53,75.28,34.76a1.4,1.4,0,0,0,2,0,1.42,1.42,0,0,0,.4-1s0-.08,0-.12h.48L59.66,15.84l13-12.5L97.82,27.57a1.41,1.41,0,0,0,2,0,1.36,1.36,0,0,0,.39-1,.53.53,0,0,0,0-.13Z"/><path d="M92.48,27a1.4,1.4,0,0,0-1.4,1.4v22H71.34V35.55a1.41,1.41,0,0,0-2.81,0v22H31.66v-22a1.41,1.41,0,0,0-2.81,0V50.32H9.11v-22a1.4,1.4,0,0,0-2.8,0V51.72a1.4,1.4,0,0,0,1.4,1.4H28.85v5.79a1.41,1.41,0,0,0,1.41,1.4H69.94a1.4,1.4,0,0,0,1.4-1.4V53.12H92.48a1.4,1.4,0,0,0,1.4-1.4V28.36A1.4,1.4,0,0,0,92.48,27Z"/></svg>
