<svg xmlns="http://www.w3.org/2000/svg" viewBox="0 0 99 82"><path d="M97.8,32.35A7.58,7.58,0,0,1,99,36.41V67.86a1.42,1.42,0,0,1-1.5,1.5H88.35a11.46,11.46,0,1,1-22.8,0H40.05a11.46,11.46,0,1,1-22.8,0H1.5A1.42,1.42,0,0,1,0,67.86V1.5A1.42,1.42,0,0,1,1.5,0H64.65a1.42,1.42,0,0,1,1.5,1.5V11.89H81a7.9,7.9,0,0,1,6.75,3.76ZM81,14.9H66.15V50.4H96V36.56A5.12,5.12,0,0,0,95.25,34l-10-16.7A5,5,0,0,0,81,14.9ZM3,3V50.25H63.15V3ZM28.8,79a8.66,8.66,0,0,0,8.55-8.58A8.55,8.55,0,1,0,28.8,79Zm48.45,0a8.58,8.58,0,1,0-8.55-8.58A8.56,8.56,0,0,0,77.25,79ZM96,66.35V53.26H3V66.35H17.85a11.6,11.6,0,0,1,21.6,0h27a11.6,11.6,0,0,1,21.6,0ZM73.2,36.56a1.77,1.77,0,0,1-1.65-1.65V21.67a1.42,1.42,0,0,1,1.5-1.51h5.4a4.14,4.14,0,0,1,3.45,2L89.25,34a1.38,1.38,0,0,1,.45,1.06,1.42,1.42,0,0,1-1.5,1.5Zm1.5-13.24V33.55H85.5l-6-9.78a1.07,1.07,0,0,0-.9-.45ZM36.3,8.73l22.5,16.7a1.85,1.85,0,0,1,.6,1.2,1.36,1.36,0,0,1-.6,1.2L36.15,44.54a1.38,1.38,0,0,1-1.5.15,1.59,1.59,0,0,1-.75-1.36V37H8.1a1.42,1.42,0,0,1-1.5-1.5V17.75a1.42,1.42,0,0,1,1.5-1.5H34.05V9.93a1.58,1.58,0,0,1,.75-1.35A1.38,1.38,0,0,1,36.3,8.73Zm.6,31.59L55.5,26.63,36.9,12.94v4.81a1.42,1.42,0,0,1-1.5,1.51H9.6V34H35.4a1.43,1.43,0,0,1,1.5,1.51Z"/></svg>
