<svg xmlns="http://www.w3.org/2000/svg" viewBox="0 0 70.63 109.08"><title>Asset 3</title><g id="Layer_2" data-name="Layer 2"><g id="Layer_1-2" data-name="Layer 1"><path d="M67.9,28.47a23.72,23.72,0,0,0-6.5-.9C52.3,27.67,43,33,43,43.07V63a5.16,5.16,0,0,0,5.3,4.5,5.09,5.09,0,0,0,2.2-.5v29.4a6.23,6.23,0,0,0,10.9,4.1,6.12,6.12,0,0,0,4.7,2.1,5.23,5.23,0,0,0,1.8-.3V99a2.79,2.79,0,0,1-1.8.6,3.12,3.12,0,0,1-3.1-3.1l.1-33.3a1.59,1.59,0,0,0-1.7-1.5,1.56,1.56,0,0,0-1.6,1.5v33.3a3.1,3.1,0,1,1-6.2,0V43.27a1.5,1.5,0,0,0-1.6-1.5,1.56,1.56,0,0,0-1.6,1.5v19.3a2.24,2.24,0,0,1-4.4,0V43c0-8.5,8-12.3,15.4-12.3a20.58,20.58,0,0,1,6.23.92V42.4h3V30.27H67.9Z"/><path d="M18.5,25.67A9.5,9.5,0,1,0,9,16.17,9.56,9.56,0,0,0,18.5,25.67Zm0-16a6.5,6.5,0,1,1-6.5,6.5A6.62,6.62,0,0,1,18.5,9.67Z"/><path d="M18.5,27.67C9.3,27.67,0,33,0,43.07V63a5.16,5.16,0,0,0,5.3,4.5A5.09,5.09,0,0,0,7.5,67v29.4a6.23,6.23,0,0,0,10.9,4.1,6.12,6.12,0,0,0,4.7,2.1,6.23,6.23,0,0,0,6.2-6.2V67a5.93,5.93,0,0,0,2.3.5A5.16,5.16,0,0,0,36.9,63c0-.1.1-.3.1-.4V43C37,33,27.7,27.67,18.5,27.67Zm15.4,34.9a2,2,0,0,1-2.2,1.8,2,2,0,0,1-2.2-1.8V43.27a1.5,1.5,0,0,0-1.6-1.5,1.56,1.56,0,0,0-1.6,1.5v53.2a3.1,3.1,0,0,1-6.2,0l.1-33.3a1.59,1.59,0,0,0-1.7-1.5,1.56,1.56,0,0,0-1.6,1.5v33.3a3.1,3.1,0,0,1-6.2,0V43.27a1.5,1.5,0,0,0-1.6-1.5,1.56,1.56,0,0,0-1.6,1.5v19.3a2,2,0,0,1-2.2,1.8,2,2,0,0,1-2.2-1.8V43c0-8.5,8-12.3,15.4-12.3S33.9,34.57,33.9,43Z"/><path d="M68,9.27a9.06,9.06,0,0,0-6.5-2.6,9.5,9.5,0,1,0,6.13,16.71v.82h3V12.07H68Zm-6.5,13.3a6.5,6.5,0,1,1,6.13-8.65v4.29A6.47,6.47,0,0,1,61.5,22.57Z"/><rect x="67.63" width="3" height="6"/><rect x="67.63" y="84.88" width="3" height="12.13"/><rect x="67.63" y="48.47" width="3" height="12.13"/><rect x="67.63" y="66.67" width="3" height="12.13"/><rect x="67.63" y="103.08" width="3" height="6"/></g></g></svg>