<svg xmlns="http://www.w3.org/2000/svg" viewBox="0 0 68 96"><path d="M43,36.43V55.86s0,0,0,.07,0,0,0,.07h0a1.84,1.84,0,0,0,0,.33,5.19,5.19,0,0,0,5.33,4.53,5.5,5.5,0,0,0,2.23-.47V89.8a6.23,6.23,0,0,0,10.89,4.1A6.23,6.23,0,0,0,68,95.72V92.3a3.08,3.08,0,0,1-4.94-2.46v0l.1-33.32a1.64,1.64,0,0,0-1.66-1.54,1.55,1.55,0,0,0-1.57,1.54V89.84a3.1,3.1,0,0,1-6.2,0V36.59a1.56,1.56,0,0,0-3.12,0V55.93a2.29,2.29,0,0,1-4.48.06V36.43c0-8.48,8-12.35,15.37-12.35A20.54,20.54,0,0,1,68,25.13V21.92A23.33,23.33,0,0,0,61.49,21C52.3,21,43,26.3,43,36.43Z"/><path  d="M18.5,19A9.5,9.5,0,1,0,9,9.5,9.51,9.51,0,0,0,18.5,19Zm0-16A6.46,6.46,0,1,1,12,9.5,6.46,6.46,0,0,1,18.5,3Z"/><path d="M18.49,21C9.3,21,0,26.3,0,36.43V55.86s0,0,0,.07S0,56,0,56H0a1.84,1.84,0,0,0,0,.33,5.19,5.19,0,0,0,5.33,4.53,5.5,5.5,0,0,0,2.23-.47V89.8a6.23,6.23,0,0,0,10.89,4.1,6.23,6.23,0,0,0,10.9-4.1v-3a1.92,1.92,0,0,0,0-.22V60.38a5.73,5.73,0,0,0,2.27.48,5.19,5.19,0,0,0,5.31-4.47A1.67,1.67,0,0,0,37,56V36.43C37,26.3,27.68,21,18.49,21ZM33.87,55.93a2.08,2.08,0,0,1-2.25,1.85,2.07,2.07,0,0,1-2.23-1.85,1.92,1.92,0,0,0,0-.22V36.59a1.56,1.56,0,0,0-3.12,0l0,53.21a3.1,3.1,0,0,1-6.2,0v0l.1-33.32a1.64,1.64,0,0,0-1.66-1.54,1.55,1.55,0,0,0-1.57,1.54V89.84a3.1,3.1,0,0,1-6.2,0V36.59a1.56,1.56,0,0,0-3.12,0V55.93a2.08,2.08,0,0,1-2.25,1.85A2.09,2.09,0,0,1,3.13,56V36.43c0-8.48,8-12.35,15.37-12.35S33.87,28,33.87,36.43v19.5Z"/><path d="M61.5,0A9.5,9.5,0,1,0,68,16.41V2.59A9.45,9.45,0,0,0,61.5,0Zm0,16A6.46,6.46,0,1,1,68,9.5,6.46,6.46,0,0,1,61.5,16Z"/></svg>
