<svg xmlns="http://www.w3.org/2000/svg" viewBox="0 0 84.85 91.75"><path d="M83.37,17.35l1.48,19.37v.09a9,9,0,0,1-2.45,5.87,7.8,7.8,0,0,1-3.19,2V71.59H63a28.69,28.69,0,0,1,.24,3.72,27.14,27.14,0,0,1-4.92,15.81l-.44.63H23l-.05-.07c-6.2-.53-11.13-6.35-11.13-13.35V66.85h7.11A25.79,25.79,0,0,1,26.66,55a21.55,21.55,0,0,1,8.93-4.59l6.55-14.08A2.82,2.82,0,0,0,42,33.55a2.87,2.87,0,0,0-2.46-1.33H31.23c-9.84,0-16.75-1.26-21.75-3.95C3.19,24.88,0,19.08,0,11V9.77l7.57-1.2.71-.12,52-8.24A16.62,16.62,0,0,1,73.74,4c5.22.54,9.36,5.36,9.54,11.25v.15C83.3,16.08,83.32,16.72,83.37,17.35ZM3,12.25a20,20,0,0,0,.55,4h4V11.52ZM14.75,69.77v4.06a5.57,5.57,0,0,0,3.93-4.06ZM56.32,88.83a24.32,24.32,0,0,0,4-13.52A25.45,25.45,0,0,0,60,71.59a23.63,23.63,0,0,0-.61-2.92,20.58,20.58,0,0,0-.64-2l-.08-.24V56.85a10.74,10.74,0,0,0-9.32-10.59V55l-2-.86a17.6,17.6,0,0,0-6.88-1.4,17.31,17.31,0,0,0-2.79.23,17.81,17.81,0,0,0-3.72,1,19.11,19.11,0,0,0-5.35,3.23,22.92,22.92,0,0,0-7,11.06v.24a8.26,8.26,0,0,1-6.81,8.09v1.72c0,5.7,4,10.4,9,10.47h.74v0ZM76.25,68.67V45l-10.16-.2c-4.26-.18-7.56-4.15-7.36-8.86l0-.17,3.13-19.32c.1-.62.17-1.24.25-1.9l0-.19a11.77,11.77,0,0,1,7.29-9.8,13.76,13.76,0,0,0-8.72-1.48l-50.2,8v8.13h-6C7.82,26.2,16.3,29.3,31.23,29.3h8.26A5.87,5.87,0,0,1,44.44,32a5.76,5.76,0,0,1,.38,5.57L39.08,49.88c.45,0,.9-.05,1.35-.05a20.53,20.53,0,0,1,6,.89V43.24h1.47A13.69,13.69,0,0,1,61.62,56.85V65.9a23.83,23.83,0,0,1,.82,2.77Zm4-28a6,6,0,0,0,1.64-3.89l-1.46-19.2c-.05-.7-.08-1.4-.09-2.08v-.14a9.3,9.3,0,0,0-2.86-6.56,6.92,6.92,0,0,0-4.42-1.9h-.52c-3.73.15-7,3.47-7.45,7.81l0,.19c-.07.66-.15,1.35-.26,2L61.67,36.15c-.09,3.06,1.92,5.62,4.53,5.74l10,.2.63,0a4.19,4.19,0,0,0,2.32-.61A4.85,4.85,0,0,0,80.25,40.66ZM29.74,76.05H44V79H29.74Zm13.7,9.34L29.7,82.77l.56-2.86L44,82.52ZM27.8,66.22h3.93v4.37H27.8ZM45.16,11.48h4.92v5.34H45.16Z"/></svg>
