<svg xmlns="http://www.w3.org/2000/svg" viewBox="0 0 70 95"><path d="M46.87,77.9a1.49,1.49,0,0,0,1.48-1.5v-33a1.48,1.48,0,1,0-3,0v33A1.49,1.49,0,0,0,46.87,77.9Z"/><path d="M66.29,11.22h-19l-.06-.44a12.29,12.29,0,0,0-24.4,0l-.06.44h-19A3.75,3.75,0,0,0,0,15v9a3.74,3.74,0,0,0,3.71,3.76h2l4,59.51A8.23,8.23,0,0,0,17.84,95H52.16a8.23,8.23,0,0,0,8.16-7.72l4-59.51h2A3.74,3.74,0,0,0,70,24V15A3.75,3.75,0,0,0,66.29,11.22Zm-40.46-.6a9.33,9.33,0,0,1,18.35,0l.11.6H25.71ZM57.37,87.08A5.25,5.25,0,0,1,52.16,92H17.84a5.25,5.25,0,0,1-5.21-4.92l-4-59.31H61.32ZM67,24a.76.76,0,0,1-.75.76H3.71A.76.76,0,0,1,3,24V15a.76.76,0,0,1,.75-.76H66.29A.76.76,0,0,1,67,15Z"/><path d="M23.13,77.9a1.49,1.49,0,0,0,1.48-1.5v-33a1.48,1.48,0,1,0-3,0v33A1.49,1.49,0,0,0,23.13,77.9Z"/><path d="M35,84.37a1.49,1.49,0,0,0,1.48-1.5v-46a1.48,1.48,0,1,0-3,0v46A1.49,1.49,0,0,0,35,84.37Z"/></svg>
