<svg xmlns="http://www.w3.org/2000/svg" viewBox="0 0 96 96"><path d="M79.72,58.06a14,14,0,0,0,2,.15,14.24,14.24,0,0,0,7.92-26.08A12,12,0,0,0,79.59,14.34a19.58,19.58,0,0,0-33.47-7.8c-5.72.12-9.54,3-11.1,8.36a26.57,26.57,0,1,0-9.5,51.74V87.19A184.76,184.76,0,0,0,.93,90.52a1.19,1.19,0,0,0,.27,2.36,1.24,1.24,0,0,0,.27,0A184.4,184.4,0,0,1,25.52,89.6v5.18a1.2,1.2,0,0,0,2.4,0V89.42a276.05,276.05,0,0,1,32.3-.32v5.7a1.2,1.2,0,0,0,2.4,0V89.22a279.65,279.65,0,0,1,32,3.65A1.2,1.2,0,0,0,95,90.5a282.2,282.2,0,0,0-32.38-3.68V66.92A24.57,24.57,0,0,0,79.72,58.06ZM46.5,8.94h.13a1.24,1.24,0,0,0,.95-.42,17.18,17.18,0,0,1,29.91,7.3,1.17,1.17,0,0,0,1.22.93h.39a9.66,9.66,0,0,1,9.64,9.64A9.53,9.53,0,0,1,87,31.84a1.21,1.21,0,0,0,.41,1.74,11.85,11.85,0,0,1-8,22,1.2,1.2,0,0,0-1.18.43,22.17,22.17,0,0,1-15.66,8.49V58.35l5.76-5.75a1.2,1.2,0,0,0,0-1.7,1.19,1.19,0,0,0-1.69,0L62.62,55V47.52l3.18-3.17a1.2,1.2,0,0,0-1.7-1.7l-1.48,1.48V37.21a1.2,1.2,0,1,0-2.4,0v6.92l-1.47-1.48a1.2,1.2,0,0,0-1.7,0,1.22,1.22,0,0,0,0,1.7l3.17,3.17V55l-4-4.06a1.2,1.2,0,0,0-1.7,1.7l5.75,5.75v6.23A21.82,21.82,0,0,1,45.55,59a26.43,26.43,0,0,0-8.26-43.2C38.55,11.18,41.56,8.94,46.5,8.94ZM2.4,40.13A24.33,24.33,0,1,1,27.92,64.21V55.06l7.55-7.55a1.2,1.2,0,0,0,0-1.7,1.19,1.19,0,0,0-1.69,0l-5.86,5.85v-10a1.2,1.2,0,1,0-2.4,0v10l-5.85-5.85a1.2,1.2,0,1,0-1.7,1.7l7.55,7.55v9.15A24.23,24.23,0,0,1,2.4,40.13ZM27.92,87V66.64a26.7,26.7,0,0,0,15.84-6.08A24.1,24.1,0,0,0,60.22,67V86.7A278.43,278.43,0,0,0,27.92,87Z"/></svg>
